<?xml version="1.0" encoding="UTF-8" standalone="no"?>
<!-- Created with Inkscape (http://www.inkscape.org/) -->

<svg
   xmlns:dc="http://purl.org/dc/elements/1.1/"
   xmlns:cc="http://creativecommons.org/ns#"
   xmlns:rdf="http://www.w3.org/1999/02/22-rdf-syntax-ns#"
   xmlns:svg="http://www.w3.org/2000/svg"
   xmlns="http://www.w3.org/2000/svg"
   xmlns:xlink="http://www.w3.org/1999/xlink"
   xmlns:sodipodi="http://sodipodi.sourceforge.net/DTD/sodipodi-0.dtd"
   xmlns:inkscape="http://www.inkscape.org/namespaces/inkscape"
   width="163.92213mm"
   height="163.91138mm"
   viewBox="0 0 580.82646 580.78834"
   id="svg2"
   version="1.1"
   inkscape:version="0.91 r13725"
   sodipodi:docname="reproducibility-cycle.svg">
  <defs
     id="defs4" />
  <sodipodi:namedview
     id="base"
     pagecolor="#ffffff"
     bordercolor="#666666"
     borderopacity="1.0"
     inkscape:pageopacity="0.0"
     inkscape:pageshadow="2"
     inkscape:zoom="1.4142136"
     inkscape:cx="292.17571"
     inkscape:cy="256.03675"
     inkscape:document-units="px"
     inkscape:current-layer="layer1"
     showgrid="false"
     inkscape:window-width="1920"
     inkscape:window-height="1176"
     inkscape:window-x="0"
     inkscape:window-y="24"
     inkscape:window-maximized="1"
     fit-margin-top="5"
     fit-margin-left="5"
     fit-margin-bottom="5"
     fit-margin-right="5" />
  <metadata
     id="metadata7">
    <rdf:RDF>
      <cc:Work
         rdf:about="">
        <dc:format>image/svg+xml</dc:format>
        <dc:type
           rdf:resource="http://purl.org/dc/dcmitype/StillImage" />
        <dc:title></dc:title>
      </cc:Work>
    </rdf:RDF>
  </metadata>
  <g
     inkscape:label="Layer 1"
     inkscape:groupmode="layer"
     id="layer1"
     transform="translate(-81.634022,-39.174343)">
    <circle
       style="fill:#f4e1ee;fill-opacity:0.22641512"
       id="path4440"
       cx="372.04724"
       cy="329.43362"
       r="223.21429" />
    <path
       style="fill:#ffd5f6;fill-rule:evenodd;stroke:#de87cd;stroke-width:1px;stroke-linecap:butt;stroke-linejoin:miter;stroke-opacity:1"
       d="m 373.00863,57.396484 22.25196,22.251954 -20.21485,20.214843 a 229.88748,229.88748 0 0 1 226.625,221.683599 l 21.5332,21.5332 20.6875,-20.6875 A 272.23611,272.23611 0 0 0 373.00863,57.396484 Z m -7.69922,0.300782 A 272.23611,272.23611 0 0 0 99.868013,325.98047 l 21.621087,-21.62305 20.86133,20.86133 A 229.88748,229.88748 0 0 1 367.02035,99.888672 L 387.26059,79.648438 365.30941,57.697266 Z M 121.4891,312.35742 99.996913,333.85156 A 272.23611,272.23611 0 0 0 369.14144,601.73242 l -20.9414,-20.9414 21.42383,-21.42383 A 229.88748,229.88748 0 0 1 142.23715,333.10547 L 121.4891,312.35742 Z m 480.40625,17.41406 A 229.88748,229.88748 0 0 1 377.7059,559.28516 l -21.50586,21.50586 20.79492,20.79492 A 272.23611,272.23611 0 0 0 644.24105,330.04297 l -21.03711,21.03711 -21.30859,-21.3086 z"
       id="path3336"
       inkscape:connector-curvature="0" />
    <g
       id="g3647"
       transform="matrix(1.8174328,0,0,1.8174328,279.09631,404.19455)"
       style="fill:#d7eef4;stroke:#87cdde">
      <path
         id="path3635"
         d="m 17.578,22.504 -1.758,-4.129 -2.007,4.752 -7.519,-3.289 0.174,3.905 9.437,4.374 10.91,-5.365 -0.146,-4.988 -9.091,4.74 z M 29.954,7.119 19.021,3.883 16.015,6.554 12.924,4.195 2.046,8.699 l 3.795,3.048 -3.433,5.302 10.879,4.758 2.53,-5.999 2.257,5.308 11.393,-5.942 -3.105,-4.709 3.592,-3.346 z m -14.177,7.96 -9.059,-3.83 9.275,-4.101 9.608,3.255 -9.824,4.676 z"
         inkscape:connector-curvature="0"
         style="fill:#d7eef4;stroke:#87cdde" />
    </g>
    <g
       id="g3682"
       transform="matrix(0.66935735,0,0,0.66935735,283.7783,192.1594)"
       style="fill:#87cdde;stroke:none">
      <g
         id="g3654"
         style="fill:#87cdde;stroke:none">
        <path
           id="path3656"
           d="m 81.517,62.75 c -5.08,12.414 -17.279,21.162 -31.523,21.162 -18.805,0 -34.049,-15.246 -34.049,-34.049 0,-0.051 0.003,-0.1 0.003,-0.146 0.514,-0.002 6.874,0 6.874,0 L 11.562,38.448 0.291,49.715 l 7.014,0 c 0,0.002 0,0.002 0,0.002 0,23.586 19.12,42.707 42.707,42.707 16.617,0 31.016,-9.492 38.076,-23.35 L 81.517,62.75 Z"
           inkscape:connector-curvature="0"
           style="fill:#87cdde;stroke:none" />
        <path
           id="path3658"
           d="m 18.482,37.25 c 5.08,-12.415 17.279,-21.162 31.524,-21.162 18.805,0 34.048,15.244 34.048,34.049 0,0.049 -0.002,0.1 -0.002,0.146 -0.515,0 -6.873,0 -6.873,0 l 11.258,11.27 11.271,-11.27 -7.014,0 0,0 C 92.694,26.696 73.574,7.575 49.986,7.575 33.369,7.575 18.97,17.068 11.91,30.924 l 6.572,6.326 z"
           inkscape:connector-curvature="0"
           style="fill:#87cdde;stroke:none" />
      </g>
      <g
         id="g3660"
         style="fill:#87cdde;stroke:none">
        <polygon
           id="polygon3662"
           points="48.872,68.064 32.261,59.166 32.261,41.157 48.872,50.055 "
           style="fill:#87cdde;stroke:none" />
        <polygon
           id="polygon3664"
           points="51.158,68.064 67.769,59.166 67.769,41.157 51.158,50.055 "
           style="fill:#87cdde;stroke:none" />
        <g
           id="g3666"
           style="fill:#87cdde;stroke:none">
          <polygon
             id="polygon3668"
             points="40.871,35.711 33.135,39.354 49.954,48.399 57.473,44.355 "
             style="fill:#87cdde;stroke:none" />
          <polygon
             id="polygon3670"
             points="59.376,43.332 66.773,39.354 49.954,31.436 42.905,34.754 "
             style="fill:#87cdde;stroke:none" />
        </g>
      </g>
    </g>
    <g
       id="g3709"
       transform="matrix(1.1023838,0,0,1.1023838,659.95191,620.82159)"
       style="fill:#87cdde;stroke:none">
      <path
         id="path3697"
         d="m -128.99907,-260.02611 c 0.0338,-0.46687 -0.21682,-0.90839 -0.63469,-1.11789 l -9.22016,-4.63486 9.06867,-3.04448 c 0.44378,-0.14923 0.75352,-0.54965 0.78618,-1.01651 0.0338,-0.46687 -0.21682,-0.90782 -0.63469,-1.11789 l -9.20946,-4.63035 8.95379,-3.26805 c 0.30523,-0.11151 0.50797,-0.40154 0.50741,-0.72705 -5.6e-4,-0.32551 -0.20387,-0.61498 -0.50967,-0.72592 l -26.65973,-9.65943 c -0.17289,-0.0619 -0.36043,-0.0614 -0.52938,0.002 l -26.27452,9.65999 c -0.30468,0.11151 -0.50685,0.40154 -0.50629,0.72592 5.6e-4,0.32438 0.20274,0.61385 0.50798,0.72536 l 8.95378,3.26805 -9.20946,4.62923 c -0.41844,0.21006 -0.66848,0.65102 -0.63525,1.11789 0.0332,0.46686 0.34296,0.86727 0.78674,1.01651 l 9.0681,3.04448 -9.21959,4.63542 c -0.41844,0.2095 -0.66848,0.65102 -0.63525,1.11789 0.0332,0.4663 0.34296,0.86671 0.78674,1.01539 l 9.23537,3.10192 -9.38686,4.71764 c -0.41844,0.21063 -0.66848,0.65215 -0.63525,1.11845 0.0332,0.4663 0.34296,0.86728 0.78674,1.01708 l 26.46713,8.88676 c 0.11939,0.0389 0.24441,0.0597 0.36887,0.0597 0.12446,0 0.24892,-0.0208 0.36888,-0.0597 l 26.46713,-8.88676 c 0.44378,-0.1498 0.75352,-0.55078 0.78618,-1.01708 0.0338,-0.4663 -0.21682,-0.90782 -0.63469,-1.11845 l -9.38686,-4.71821 9.23537,-3.10192 c 0.44434,-0.14811 0.75408,-0.54852 0.78674,-1.01482 z m -42.43627,-14.45761 c 0.008,-0.004 0.0152,-0.0101 0.0237,-0.0146 l 14.52519,5.30165 c 0.085,0.031 0.17514,0.0467 0.26525,0.0467 0.0901,0 0.17965,-0.0158 0.26469,-0.0467 l 14.52518,-5.30165 c 0.009,0.005 0.0158,0.0107 0.0242,0.0146 l 8.64686,4.34708 -23.46152,7.87814 -23.46094,-7.87758 8.64742,-4.34764 z m 29.62762,19.76883 8.64685,4.34708 -23.46095,7.87701 -23.46094,-7.87757 8.64742,-4.34708 c 0.094,-0.0473 0.17458,-0.10813 0.24835,-0.17515 l 14.1963,4.76608 c 0.11939,0.0411 0.24441,0.0608 0.36887,0.0608 0.12446,0 0.24892,-0.0197 0.36888,-0.0608 l 14.19686,-4.76552 c 0.0743,0.0665 0.15487,0.12784 0.24836,0.17515 z m -14.8141,2.27012 -23.46094,-7.87757 8.64742,-4.34764 c 0.0439,-0.022 0.0816,-0.0507 0.12108,-0.0772 l 14.32413,4.80944 c 0.1194,0.0405 0.24442,0.0597 0.36888,0.0597 0.12446,0 0.24892,-0.0192 0.36887,-0.0597 l 14.32414,-4.80944 c 0.0389,0.0265 0.0771,0.0552 0.12108,0.0772 l 8.64686,4.34764 -23.46152,7.87757 z"
         inkscape:connector-curvature="0"
         style="fill:#87cdde;stroke:none" />
      <flowRoot
         xml:space="preserve"
         id="flowRoot4344"
         style="font-style:normal;font-weight:normal;font-size:40px;line-height:125%;font-family:sans-serif;letter-spacing:0px;word-spacing:0px;fill:#87cdde;fill-opacity:1;stroke:none;stroke-width:1px;stroke-linecap:butt;stroke-linejoin:miter;stroke-opacity:1"><flowRegion
           id="flowRegion4346"><rect
             id="rect4348"
             width="107.07617"
             height="44.95179"
             x="668.21588"
             y="695.77838"
             style="fill:#87cdde;stroke:none" /></flowRegion><flowPara
           id="flowPara4350" /></flowRoot>      <flowRoot
         xml:space="preserve"
         id="flowRoot4352"
         style="font-style:normal;font-weight:normal;font-size:40px;line-height:125%;font-family:sans-serif;letter-spacing:0px;word-spacing:0px;fill:#87cdde;fill-opacity:1;stroke:none;stroke-width:1px;stroke-linecap:butt;stroke-linejoin:miter;stroke-opacity:1"><flowRegion
           id="flowRegion4354"><rect
             id="rect4356"
             width="194.95944"
             height="58.588848"
             x="610.63721"
             y="695.27325"
             style="fill:#87cdde;stroke:none" /></flowRegion><flowPara
           id="flowPara4358" /></flowRoot>    </g>
    <g
       id="g3894"
       transform="matrix(0.91426923,0,0,0.91426923,405.12676,405.35269)"
       style="fill:#87cdde;stroke:none">
      <g
         id="g3716"
         display="none"
         style="display:none;fill:#87cdde;stroke:none">
        <rect
           id="rect3718"
           height="375.04199"
           width="787"
           display="inline"
           y="-232.76401"
           x="-632.495"
           style="display:inline;fill:#87cdde;stroke:none" />
      </g>
      <g
         id="g3720"
         display="none"
         style="display:none;fill:#87cdde;stroke:none">
        <g
           id="g3722"
           display="inline"
           style="display:inline;fill:#87cdde;stroke:none">
          <g
             id="g3724"
             style="fill:#87cdde;stroke:none">
            <path
               id="path3726"
               d="m 59.195,49.707 0,-36.793 c 0,-0.88 -0.72,-1.6 -1.6,-1.6 l -51.18,0 c -0.88,0 -1.6,0.72 -1.6,1.6 l 0,36.794 c 10e-4,-10e-4 54.514,-10e-4 54.38,-10e-4 z"
               inkscape:connector-curvature="0"
               style="fill:#87cdde;stroke:none" />
          </g>
          <g
             id="g3728"
             style="fill:#87cdde;stroke:none">
            <rect
               id="rect3730"
               height="34.394001"
               width="50.381001"
               y="13.314"
               x="6.8150001"
               style="fill:#87cdde;stroke:none" />
          </g>
          <g
             id="g3732"
             style="fill:#87cdde;stroke:none">
            <rect
               id="rect3734"
               height="1"
               width="63.988998"
               y="49.707001"
               x="0"
               style="fill:#87cdde;stroke:none" />
          </g>
          <g
             id="g3736"
             style="fill:#87cdde;stroke:none">
            <polygon
               id="polygon3738"
               points="60.801,52.707 3.211,52.707 0.011,50.707 64,50.707 "
               style="fill:#87cdde;stroke:none" />
          </g>
          <g
             id="g3740"
             style="opacity:0.7;fill:#87cdde;stroke:none">
            <path
               id="path3742"
               d="m 37.374,49.707 -10.759,0 c 0.102,0.561 0.603,1 1.229,1 l 8.3,0 c 0.627,0 1.128,-0.438 1.23,-1 z"
               inkscape:connector-curvature="0"
               style="fill:#87cdde;stroke:none" />
          </g>
        </g>
        <g
           id="g3744"
           display="inline"
           style="display:inline;fill:#87cdde;stroke:none">
          <g
             id="g3746"
             style="fill:#87cdde;stroke:none">
            <g
               id="g3748"
               style="fill:#87cdde;stroke:none">
              <g
                 id="g3750"
                 style="fill:#87cdde;stroke:none">
                <circle
                   id="circle3752"
                   r="5.7509999"
                   cy="24.122999"
                   cx="43.376999"
                   style="fill:#87cdde;stroke:none" />
              </g>
            </g>
            <g
               id="g3754"
               style="fill:#87cdde;stroke:none">
              <g
                 id="g3756"
                 style="fill:#87cdde;stroke:none">
                <path
                   id="path3758"
                   d="m 53.298,42.624 c 0,0 0,0.268 0,-5.091 0,-5.359 -5.849,-5.457 -5.849,-5.457 l -8.143,0 c 0,0 -5.849,0.066 -5.849,5.457 0,5.359 0,5.091 0,5.091 l 19.841,0 z"
                   inkscape:connector-curvature="0"
                   style="fill:#87cdde;stroke:none" />
              </g>
            </g>
          </g>
          <g
             id="g3760"
             style="fill:#87cdde;stroke:none">
            <g
               id="g3762"
               style="fill:#87cdde;stroke:none">
              <g
                 id="g3764"
                 style="fill:#87cdde;stroke:none">
                <rect
                   id="rect3766"
                   height="4.0679998"
                   width="1.941"
                   y="26.952"
                   x="12.065"
                   style="fill:#87cdde;stroke:none" />
              </g>
              <g
                 id="g3768"
                 style="fill:#87cdde;stroke:none">
                <rect
                   id="rect3770"
                   height="6.3940001"
                   width="1.941"
                   y="24.627001"
                   x="15.22"
                   style="fill:#87cdde;stroke:none" />
              </g>
              <g
                 id="g3772"
                 style="fill:#87cdde;stroke:none">
                <rect
                   id="rect3774"
                   height="9.0089998"
                   width="1.941"
                   y="22.011"
                   x="18.374001"
                   style="fill:#87cdde;stroke:none" />
              </g>
              <g
                 id="g3776"
                 style="fill:#87cdde;stroke:none">
                <rect
                   id="rect3778"
                   height="11.624"
                   width="1.941"
                   y="19.396"
                   x="21.528"
                   style="fill:#87cdde;stroke:none" />
              </g>
              <g
                 id="g3780"
                 style="fill:#87cdde;stroke:none">
                <rect
                   id="rect3782"
                   height="13.368"
                   width="1.941"
                   y="17.652"
                   x="24.683001"
                   style="fill:#87cdde;stroke:none" />
              </g>
            </g>
            <g
               id="g3784"
               style="fill:#87cdde;stroke:none">
              <g
                 id="g3786"
                 style="fill:#87cdde;stroke:none">
                <polygon
                   id="polygon3788"
                   points="11.468,43.398 10.702,42.756 16.438,35.915 21.416,41.234 25.8,36.006 26.565,36.648 21.457,42.742 16.479,37.423 "
                   style="fill:#87cdde;stroke:none" />
              </g>
              <g
                 id="g3790"
                 style="fill:#87cdde;stroke:none">
                <polygon
                   id="polygon3792"
                   points="27.604,34.878 26.749,38.235 24.416,35.778 "
                   style="fill:#87cdde;stroke:none" />
                <path
                   id="path3794"
                   d="m 27.01,39.236 -3.526,-3.716 4.818,-1.359 -1.292,5.075 z m -1.661,-3.202 1.14,1.2 0.417,-1.64 -1.557,0.44 z"
                   inkscape:connector-curvature="0"
                   style="fill:#87cdde;stroke:none" />
              </g>
            </g>
          </g>
        </g>
      </g>
      <g
         id="g3796"
         display="none"
         style="display:none;fill:#87cdde;stroke:none">
        <path
           id="path3798"
           d="m 63.989,50.697 -26.616,0 c -0.102,0.561 -0.603,1 -1.229,1 l -8.3,0 c -0.627,0 -1.127,-0.439 -1.229,-1 l -26.615,0 0,1 0.011,0 3.199,2 57.59,0 3.199,-2 -0.011,0 0,-1 z"
           display="inline"
           inkscape:connector-curvature="0"
           style="display:inline;fill:#87cdde;stroke:none" />
        <rect
           id="rect3800"
           height="4.0679998"
           width="1.941"
           display="inline"
           y="26.285"
           x="12.065"
           style="display:inline;fill:#87cdde;stroke:none" />
        <path
           id="path3802"
           d="m 57.596,10.304 -51.181,0 c -0.88,0 -1.6,0.72 -1.6,1.6 l 0,36.794 c 0,0 54.513,0 54.38,0 l 0,-36.795 c 0,-0.88 -0.72,-1.599 -1.599,-1.599 z m -14.219,7.401 c 3.176,0 5.751,2.575 5.751,5.751 0,3.176 -2.575,5.751 -5.751,5.751 -3.176,0 -5.751,-2.575 -5.751,-5.751 0,-3.176 2.575,-5.751 5.751,-5.751 z m -18.694,-0.72 1.941,0 0,13.368 -1.941,0 0,-13.368 z m -3.154,1.744 1.941,0 0,11.625 -1.941,0 0,-11.625 z m -3.155,2.616 1.941,0 0,9.009 -1.941,0 0,-9.009 z m -3.154,2.615 1.941,0 0,6.394 -1.941,0 0,-6.394 z m 11.529,13.609 -0.804,-0.847 -4.488,5.355 -4.979,-5.32 -5.011,5.976 -0.766,-0.643 5.735,-6.841 4.979,5.32 3.836,-4.576 -0.836,-0.881 3.188,-0.9 -0.854,3.357 z m 26.549,4.388 -19.841,0 c 0,-0.026 0,-0.431 0,-5.091 0,-5.391 5.849,-5.457 5.849,-5.457 l 8.143,0 c 0,0 5.849,0.098 5.849,5.457 0,4.659 0,5.064 0,5.091 z"
           display="inline"
           inkscape:connector-curvature="0"
           style="display:inline;fill:#87cdde;stroke:none" />
      </g>
      <g
         id="g3804"
         style="fill:#87cdde;stroke:none">
        <g
           id="g3806"
           style="fill:#87cdde;stroke:none">
          <path
             id="path3808"
             d="m 57.596,10.304 -51.181,0 c -0.88,0 -1.6,0.72 -1.6,1.6 l 0,36.794 c 0,0 54.241,0 54.38,0 l 0,-36.795 c 0,-0.88 -0.72,-1.599 -1.599,-1.599 z m -0.401,36.393 -50.379,0 0,-34.393 50.38,0 0,34.393 z"
             inkscape:connector-curvature="0"
             style="fill:#87cdde;stroke:none" />
          <path
             id="path3810"
             d="m 63.989,50.697 -26.616,0 c -0.102,0.561 -0.603,1 -1.229,1 l -8.3,0 c -0.627,0 -1.127,-0.439 -1.229,-1 l -26.615,0 0,1 0.011,0 3.199,2 57.59,0 3.199,-2 -0.011,0 0,-1 z"
             inkscape:connector-curvature="0"
             style="fill:#87cdde;stroke:none" />
          <path
             id="path3812"
             d="m 43.069,29.017 c 3.176,0 5.751,-2.575 5.751,-5.751 0,-3.176 -2.575,-5.751 -5.751,-5.751 -3.176,0 -5.751,2.575 -5.751,5.751 0,3.176 2.575,5.751 5.751,5.751 z m 0,-9.503 c 2.068,0 3.751,1.683 3.751,3.751 0,2.068 -1.683,3.751 -3.751,3.751 -2.068,0 -3.751,-1.683 -3.751,-3.751 0,-2.068 1.682,-3.751 3.751,-3.751 z"
             inkscape:connector-curvature="0"
             style="fill:#87cdde;stroke:none" />
          <path
             id="path3814"
             d="m 52.99,36.676 c 0,-5.359 -5.849,-5.457 -5.849,-5.457 l -8.143,0 c 0,0 -5.849,0.066 -5.849,5.457 0,4.688 0,5.069 0,5.091 l 19.841,0 c 0,-0.032 0,-0.464 0,-5.091 z m -2,3.091 -15.841,0 0,-3.091 c 0,-0.561 0.187,-3.365 3.849,-3.457 l 8.124,0 c 0.46,0.01 3.868,0.196 3.868,3.457 l 0,3.091 z"
             inkscape:connector-curvature="0"
             style="fill:#87cdde;stroke:none" />
          <rect
             id="rect3816"
             height="4.0679998"
             width="1.941"
             y="26.094999"
             x="12.756"
             style="fill:#87cdde;stroke:none" />
          <rect
             id="rect3818"
             height="6.3940001"
             width="1.941"
             y="23.77"
             x="15.911"
             style="fill:#87cdde;stroke:none" />
          <rect
             id="rect3820"
             height="9.0089998"
             width="1.941"
             y="21.153999"
             x="19.065001"
             style="fill:#87cdde;stroke:none" />
          <rect
             id="rect3822"
             height="11.625"
             width="1.941"
             y="18.539"
             x="22.219999"
             style="fill:#87cdde;stroke:none" />
          <rect
             id="rect3824"
             height="13.368"
             width="1.941"
             y="16.795"
             x="25.375"
             style="fill:#87cdde;stroke:none" />
          <polygon
             id="polygon3826"
             points="22.087,39.624 17.108,34.304 11.01,41.577 12.543,42.862 17.19,37.319 22.169,42.64 26.661,37.281 27.703,38.379 28.993,33.305 24.175,34.665 25.274,35.822 "
             style="fill:#87cdde;stroke:none" />
        </g>
      </g>
      <g
         id="g3828"
         display="none"
         style="display:none;fill:#87cdde;stroke:none">
        <g
           id="g3830"
           display="inline"
           style="display:inline;fill:#87cdde;stroke:none">
          <g
             id="g3832"
             style="fill:#87cdde;stroke:none">
            <circle
               id="circle3834"
               r="32"
               cy="32"
               cx="32"
               style="fill:#87cdde;stroke:none" />
          </g>
          <g
             id="g3836"
             style="fill:#87cdde;stroke:none">
            <path
               id="path3838"
               d="m 5.815,47.697 0,-35.794 c 0,-0.325 0.274,-0.6 0.6,-0.6 l 51.181,0 c 0.325,0 0.6,0.274 0.6,0.6 l 0,35.794 -52.381,0 z"
               inkscape:connector-curvature="0"
               style="fill:#87cdde;stroke:none" />
            <path
               id="path3840"
               d="m 57.195,12.304 0,34.393 -50.379,0 0,-34.393 50.379,0 m 0.401,-2 -51.181,0 c -0.88,0 -1.6,0.72 -1.6,1.6 l 0,36.794 c 0,0 54.241,0 54.38,0 l 0,-36.795 c 0,-0.88 -0.72,-1.599 -1.599,-1.599 l 0,0 z m 1.6,38.393 0,0 0,0 0,0 z"
               inkscape:connector-curvature="0"
               style="fill:#87cdde;stroke:none" />
          </g>
          <path
             id="path3842"
             d="m 63.989,51.697 0,-1 -26.616,0 c -0.102,0.561 -0.603,1 -1.229,1 l -8.3,0 c -0.627,0 -1.127,-0.439 -1.229,-1 l -26.615,0 0,1 0.011,0 3.199,2 57.59,0 3.199,-2 -0.01,0 z"
             inkscape:connector-curvature="0"
             style="fill:#87cdde;stroke:none" />
        </g>
        <g
           id="g3844"
           display="inline"
           style="display:inline;fill:#87cdde;stroke:none">
          <g
             id="g3846"
             style="fill:#87cdde;stroke:none">
            <g
               id="g3848"
               style="fill:#87cdde;stroke:none">
              <g
                 id="g3850"
                 style="fill:#87cdde;stroke:none">
                <circle
                   id="circle3852"
                   r="4.7509999"
                   cy="23.266001"
                   cx="43.069"
                   style="fill:#87cdde;stroke:none" />
                <path
                   id="path3854"
                   d="m 43.069,19.514 c 2.068,0 3.751,1.683 3.751,3.751 0,2.068 -1.683,3.751 -3.751,3.751 -2.068,0 -3.751,-1.683 -3.751,-3.751 0,-2.068 1.682,-3.751 3.751,-3.751 m 0,-2 c -3.176,0 -5.751,2.575 -5.751,5.751 0,3.176 2.575,5.751 5.751,5.751 3.176,0 5.751,-2.575 5.751,-5.751 0,-3.176 -2.575,-5.751 -5.751,-5.751 l 0,0 z"
                   inkscape:connector-curvature="0"
                   style="fill:#87cdde;stroke:none" />
              </g>
            </g>
            <g
               id="g3856"
               style="fill:#87cdde;stroke:none">
              <g
                 id="g3858"
                 style="fill:#87cdde;stroke:none">
                <path
                   id="path3860"
                   d="m 34.149,40.767 0,-4.091 c 0,-4.352 4.661,-4.454 4.859,-4.456 l 8.132,0 c 0.479,0.012 4.849,0.233 4.849,4.456 l 0,4.091 -17.84,0 z"
                   inkscape:connector-curvature="0"
                   style="fill:#87cdde;stroke:none" />
                <path
                   id="path3862"
                   d="m 47.122,33.219 c 0.46,0.01 3.868,0.196 3.868,3.457 l 0,3.091 -15.841,0 0,-3.091 c 0,-0.561 0.187,-3.365 3.849,-3.457 l 8.124,0 m 0.019,-2 -8.143,0 c 0,0 -5.849,0.066 -5.849,5.457 0,4.871 0,5.093 0,5.093 l 0,-0.002 19.841,0 c 0,-0.032 0,-0.463 0,-5.091 0,-5.359 -5.849,-5.457 -5.849,-5.457 l 0,0 z m 5.849,10.548 0,0.002 c 0,0 0,-10e-4 0,-0.002 l 0,0 z"
                   inkscape:connector-curvature="0"
                   style="fill:#87cdde;stroke:none" />
              </g>
            </g>
          </g>
          <g
             id="g3864"
             style="fill:#87cdde;stroke:none">
            <g
               id="g3866"
               style="fill:#87cdde;stroke:none">
              <rect
                 id="rect3868"
                 height="4.0679998"
                 width="1.941"
                 y="26.094999"
                 x="12.756"
                 style="fill:#87cdde;stroke:none" />
              <rect
                 id="rect3870"
                 height="6.3940001"
                 width="1.941"
                 y="23.77"
                 x="15.911"
                 style="fill:#87cdde;stroke:none" />
              <rect
                 id="rect3872"
                 height="9.0089998"
                 width="1.941"
                 y="21.153999"
                 x="19.065001"
                 style="fill:#87cdde;stroke:none" />
              <rect
                 id="rect3874"
                 height="11.624"
                 width="1.941"
                 y="18.539"
                 x="22.219999"
                 style="fill:#87cdde;stroke:none" />
              <rect
                 id="rect3876"
                 height="13.368"
                 width="1.941"
                 y="16.795"
                 x="25.375"
                 style="fill:#87cdde;stroke:none" />
            </g>
            <g
               id="g3878"
               style="fill:#87cdde;stroke:none">
              <polyline
                 id="polyline3880"
                 points="11.777,42.22 17.149,35.812       22.128,41.132 26.874,35.47     "
                 stroke-miterlimit="10"
                 style="fill:#87cdde;stroke:none;stroke-width:2;stroke-miterlimit:10" />
              <polygon
                 id="polygon3882"
                 points="28.295,34.021 27.441,37.378 25.107,34.921 "
                 stroke-miterlimit="10"
                 style="fill:#87cdde;stroke:none;stroke-miterlimit:10" />
            </g>
          </g>
        </g>
      </g>
    </g>
    <g
       id="g3996"
       transform="matrix(0.72675264,0,0,0.72675264,386.61029,186.58183)"
       style="fill:#87cdde;stroke:none">
      <path
         id="path3984"
         d="m 84.828,67.464 -2.302,0 -3.819,-47.686 c -0.031,-0.39 -0.357,-0.69 -0.748,-0.69 l -3.947,0 -8.993,0 -1.445,-6.125 c -0.079,-0.339 -0.382,-0.578 -0.729,-0.578 l -3.978,0 0,-1.121 c 0,-0.247 -0.151,-0.47 -0.382,-0.56 L 55.188,9.421 C 55.118,9.395 55.044,9.383 54.97,9.383 l 0,-0.058 -2.356,0 c -0.081,0 -0.162,0.017 -0.236,0.048 l -3.117,1.339 c -0.221,0.095 -0.363,0.312 -0.363,0.552 l 0,1.121 -0.123,0 -1.96,0 -2.096,0 c -0.377,0 -0.696,0.28 -0.744,0.655 l -0.773,6.048 -9.285,0 c -0.104,0 -0.205,0.021 -0.3,0.062 l -3.813,1.666 c -0.294,0.128 -0.474,0.429 -0.448,0.747 l 2.803,35.01 -17.648,32.998 c -0.125,0.232 -0.118,0.513 0.018,0.739 0.136,0.226 0.38,0.364 0.644,0.364 l 1.784,0 c 0.006,-0.014 0.008,-0.028 0.015,-0.043 0.018,-0.037 0.036,-0.075 0.054,-0.112 0.126,0.091 0.268,0.155 0.429,0.155 l 4.056,0 c 0.276,0 0.531,-0.152 0.661,-0.396 l 8.005,-14.969 c 0.103,0.291 0.374,0.502 0.7,0.502 l 5.07,0 -1.793,14.02 c -0.027,0.213 0.039,0.429 0.182,0.59 0.142,0.162 0.347,0.255 0.562,0.255 l 2.095,0 0.015,0 4.041,0 c 0.377,0 0.696,-0.28 0.744,-0.655 l 1.817,-14.209 26.953,0 3.37,14.286 c 0.079,0.339 0.382,0.578 0.729,0.578 l 2.243,0 1.812,0 2.242,0 c 0.229,0 0.446,-0.104 0.588,-0.284 0.143,-0.18 0.194,-0.415 0.142,-0.638 L 78.4,75.812 l 1.616,0 4.812,0 c 0.414,0 0.75,-0.336 0.75,-0.75 l 0,-6.847 c 0,-0.415 -0.336,-0.751 -0.75,-0.751 z m -22.577,-53.579 1.227,5.203 -2.514,0 -1.227,-5.203 2.514,0 z m -2.827,5.203 -0.557,0 0,-2.362 0.557,2.362 z m -1.756,-7.414 0,7.414 -5.215,0 0,-7.422 2.523,-1.039 2.692,1.047 z m -7.651,2.211 -0.665,5.203 -2.543,0 0.666,-5.203 2.542,0 z m 1.237,5.203 -0.39,0 0.39,-3.049 0,3.049 z m -1.158,-7.429 1.193,-0.513 c -0.009,0.041 -0.036,0.074 -0.036,0.117 l 0,1.244 c -0.117,-0.072 -0.245,-0.123 -0.385,-0.123 l -0.772,0 0,-0.725 z m -4.717,2.226 0.583,0 -0.666,5.203 -0.583,0 0.666,-5.203 z m 27.146,6.703 4.742,0 3.754,46.876 -0.805,0 -41.005,0 -0.728,0 -3.754,-46.876 37.796,0 z m -39.273,0.358 3.725,46.517 -0.351,0 c -0.414,0 -0.75,0.336 -0.75,0.75 l 0,2.762 -1.06,0 -3.924,-48.998 2.36,-1.031 z m -0.873,38.394 0.076,0.945 -15.45,28.89 -0.58,0 15.954,-29.835 z m -2.253,8.874 0,4.009 -9.066,16.952 -2.354,0 13.971,-26.124 0.307,3.829 -0.312,0.584 -1.795,0 c -0.415,0 -0.751,0.336 -0.751,0.75 z m 1.5,0.75 1.08,0 0,3.261 c 0,0.414 0.336,0.75 0.75,0.75 l 3.17,0 c 0.414,0 0.75,-0.336 0.75,-0.75 l 0,-3.261 1.085,0 0,5.347 -6.835,0 0,-5.347 z m 5.832,6.847 0.583,0 -1.709,13.364 -0.583,0 1.709,-13.364 z m 2.929,13.364 -2.544,0 1.71,-13.364 2.544,0 -1.71,13.364 z m 31.715,-13.364 0.702,0 3.153,13.364 -0.702,0 -3.153,-13.364 z m 7.909,13.364 -2.514,0 -3.153,-13.364 2.514,0 3.153,13.364 z m 4.067,-14.864 -5.115,0 -39.002,0 0,-5.347 39.095,0 5.022,0 0,5.347 z"
         inkscape:connector-curvature="0"
         style="fill:#87cdde;stroke:none" />
    </g>
    <path
       style="fill:#ffaaee;fill-opacity:0.28301888"
       d="m 370.87695,108.78906 -1.33398,0.002 -0.002,0.004 -0.002,-0.004 -0.002,0.002 0,8.5293 0.0156,-0.0156 4.99219,4.99219 0.0879,0.0879 1.52539,1.51562 11.95118,11.95118 0.002,0.002 -0.004,0.004 0.002,0.002 -18.55665,18.55664 -0.0156,-0.0156 -0.002,170.76758 -146.54688,-84.60937 -7.35351,-27.43946 -27.4375,7.35352 -6.04883,-3.49219 -0.004,0.002 -0.002,0.002 -0.004,-0.002 -2.49609,4.32812 7.39258,4.26953 -0.004,-0.0156 6.8125,-1.83008 0.004,0 18.52539,-4.96485 4.96484,18.5293 0,0.002 1.82617,6.81641 -0.0156,0.004 147.88672,85.38281 -146.55274,84.61523 -27.43945,-7.35351 -7.3457,27.43359 0,0.004 -6.05079,3.49219 2.4961,4.33007 0.004,0 0.004,0 0,-0.004 7.38867,-4.25977 -0.0215,-0.008 2.41601,-9.01758 1.14844,-4.28516 3.22461,-12.04296 0.004,0.002 25.34961,6.78711 -0.01,0.0195 147.88867,-85.37891 0,81.86328 0,87.35547 -20.08594,20.08789 20.08594,20.0879 0.002,6.98046 0,0.004 0.006,-0.002 4.99218,0.004 0.004,0 0.002,-8.53515 -0.0156,0.0156 -18.55274,-18.55469 13.56055,-13.56445 4.99414,-4.99414 0.0137,0.0137 0,-170.76367 146.54492,84.61133 7.35938,27.4375 27.43359,-7.35156 0.002,-0.002 6.04882,3.49414 0.002,-0.006 0.004,0.002 2.49805,-4.32813 0.002,-0.004 -0.004,0 -7.38672,-4.26172 0.004,0.0156 -25.33789,6.78907 -0.004,0 -0.008,0.004 -6.79101,-25.34766 0.0176,-0.006 L 377.04688,329.5 l 70.89453,-40.92773 40.6875,-23.4961 34.96289,-20.18359 21.64062,5.79687 5.79883,1.55274 0.004,0 7.35156,-27.43946 6.04883,-3.49218 0.002,-0.004 -2.49805,-4.32617 -7.38867,4.26367 0.0156,0.004 -5.62696,21.00195 -1.16015,4.33984 -0.004,-0.002 0,0.008 -25.34961,-6.79297 0.004,-0.0137 -147.88672,85.38086 0,-9.64453 0.004,-159.57617 20.08398,-20.08789 -20.08398,-20.08399 -0.004,-0.002 0,-6.98437 -0.002,0 -0.004,-0.002 -3.66016,0 z m -1.32422,12.44532 -0.0879,0.0879 0,29.07812 0.0879,0.0879 4.99219,-4.99219 0,-0.004 0.006,-0.006 9.62695,-9.62695 -14.625,-14.625 z m -159.14257,100.9375 -13.15625,3.52734 -0.004,0 -0.002,-0.002 -6.81836,1.82812 0.004,0.0156 0.006,0 0.0254,0.10351 25.18164,14.53906 0,0.004 0.10743,-0.0293 0.0117,-0.004 -1.82421,-6.81446 -0.002,-0.008 -3.52734,-13.1582 -0.002,-0.002 z m 340.63476,1.00781 -25.18164,14.53906 -0.0312,0.10742 -0.002,0.0117 6.8164,1.82813 0.002,-0.002 13.16015,3.52344 3.52735,-13.15625 0.002,0 1.82813,-6.82031 -0.1211,-0.0312 z m -352.76758,192.63281 -0.002,0.006 -3.52148,13.15625 -0.004,0.006 0,0.002 -1.82812,6.81055 0.12304,0.0332 0,0.002 25.17969,-14.53906 0.0273,-0.10351 0.008,-0.0176 -0.002,-0.002 -6.8164,-1.82813 -0.004,0.004 -0.004,-0.002 -13.15625,-3.52734 z m 330.16211,1.00977 -0.10351,0.0273 -0.0176,0.006 1.82422,6.80859 0.008,0.004 0.002,0.004 0.004,0.002 3.52148,13.15429 0.002,0 13.1582,-3.52343 0.004,0.002 0.004,-0.002 6.8086,-1.82422 -0.0312,-0.11914 -25.1836,-14.53906 z m -153.90625,91.69726 -4.99023,4.98828 -9.63086,9.63477 -0.004,0.002 9.63477,9.63086 0,0.004 4.99219,4.99218 0.0859,-0.0859 0,-29.08008 -0.002,0.002 -0.0859,-0.0879 z"
       id="rect4425"
       inkscape:connector-curvature="0" />
    <circle
       r="243.21428"
       cy="-171.58713"
       cx="-466.37271"
       id="circle3563"
       style="fill:#ff6600;fill-opacity:0"
       transform="matrix(-0.93153795,-0.36364412,0.36364412,-0.93153795,0,0)" />
    <text
       xml:space="preserve"
       style="font-style:normal;font-weight:normal;font-size:20px;line-height:125%;font-family:sans-serif;letter-spacing:0px;word-spacing:0px;fill:#bc5fd3;fill-opacity:1;stroke:none;stroke-width:1px;stroke-linecap:butt;stroke-linejoin:miter;stroke-opacity:1"
       id="text3565"
       sodipodi:linespacing="125%"><textPath
         xlink:href="#circle3563"
         id="textPath3573"
         style="font-style:normal;font-variant:normal;font-weight:normal;font-stretch:normal;font-size:16.25px;font-family:Lato;-inkscape-font-specification:Lato;fill:#bc5fd3">Data Catalogues and Registries</textPath></text>
    <text
       xml:space="preserve"
       style="font-style:normal;font-weight:normal;font-size:20px;line-height:125%;font-family:sans-serif;letter-spacing:0px;word-spacing:0px;fill:#000000;fill-opacity:1;stroke:none;stroke-width:1px;stroke-linecap:butt;stroke-linejoin:miter;stroke-opacity:1"
       x="-165"
       y="219.50507"
       id="text3569"
       sodipodi:linespacing="125%"><tspan
         sodipodi:role="line"
         id="tspan3571"
         x="-165"
         y="219.50507" /></text>
    <text
       xml:space="preserve"
       style="font-style:normal;font-weight:normal;font-size:20px;line-height:125%;font-family:sans-serif;letter-spacing:0px;word-spacing:0px;fill:#bc5fd3;fill-opacity:1;stroke:none;stroke-width:1px;stroke-linecap:butt;stroke-linejoin:miter;stroke-opacity:1"
       id="text3616"
       sodipodi:linespacing="125%"><textPath
         xlink:href="#circle3620"
         id="textPath3622"><tspan
   style="font-style:normal;font-variant:normal;font-weight:normal;font-stretch:normal;font-size:16.25px;font-family:Lato;-inkscape-font-specification:Lato;fill:#bc5fd3"
   id="tspan3618">Data Creation and Deposit</tspan></textPath></text>
    <circle
       transform="matrix(0.36364412,-0.93153795,0.93153795,0.36364412,0,0)"
       style="fill:#ff6600;fill-opacity:0"
       id="circle3620"
       cx="-171.58713"
       cy="466.37271"
       r="243.21428" />
    <text
       xml:space="preserve"
       style="font-style:normal;font-weight:normal;font-size:20px;line-height:125%;font-family:sans-serif;letter-spacing:0px;word-spacing:0px;fill:#bc5fd3;fill-opacity:1;stroke:none;stroke-width:1px;stroke-linecap:butt;stroke-linejoin:miter;stroke-opacity:1"
       id="text3625"
       sodipodi:linespacing="125%"><textPath
         xlink:href="#circle3629"
         id="textPath3634"><tspan
   style="font-style:normal;font-variant:normal;font-weight:normal;font-stretch:normal;font-size:16.25px;font-family:Lato;-inkscape-font-specification:Lato;fill:#bc5fd3"
   id="tspan3627">Managing Active Data</tspan></textPath></text>
    <circle
       r="257.5"
       cy="226.77951"
       cx="442.1727"
       id="circle3629"
       style="fill:#ff6600;fill-opacity:0"
       transform="matrix(0.36364412,0.93153795,0.93153795,-0.36364412,0,0)" />
    <text
       xml:space="preserve"
       style="font-style:normal;font-weight:normal;font-size:20px;line-height:125%;font-family:sans-serif;letter-spacing:0px;word-spacing:0px;fill:#bc5fd3;fill-opacity:1;stroke:none;stroke-width:1px;stroke-linecap:butt;stroke-linejoin:miter;stroke-opacity:1"
       id="text3637"
       sodipodi:linespacing="125%"><textPath
         xlink:href="#circle3644"
         id="textPath3646"><tspan
   style="font-style:normal;font-variant:normal;font-weight:normal;font-stretch:normal;font-size:16.25px;font-family:Lato;-inkscape-font-specification:Lato;fill:#bc5fd3"
   id="tspan3639">Data Repositories and Archives</tspan></textPath></text>
    <circle
       transform="matrix(-0.94881106,0.31584421,0.31584421,0.94881106,0,0)"
       style="fill:#ff6600;fill-opacity:0"
       id="circle3644"
       cx="-248.95282"
       cy="430.07922"
       r="257.5" />
    <text
       xml:space="preserve"
       style="font-style:normal;font-weight:normal;font-size:20px;line-height:125%;font-family:sans-serif;text-align:center;letter-spacing:0px;word-spacing:0px;text-anchor:middle;fill:#006780;fill-opacity:1;stroke:none;stroke-width:1px;stroke-linecap:butt;stroke-linejoin:miter;stroke-opacity:1"
       x="239.7258"
       y="183.32797"
       id="text4585"
       sodipodi:linespacing="125%"><tspan
         sodipodi:role="line"
         x="239.7258"
         y="183.32797"
         id="tspan4597"
         style="font-style:normal;font-variant:normal;font-weight:normal;font-stretch:normal;font-size:10px;font-family:Lato;-inkscape-font-specification:Lato;fill:#006780;fill-opacity:1">Discover,</tspan><tspan
         sodipodi:role="line"
         x="239.7258"
         y="195.82797"
         id="tspan4605"
         style="font-style:normal;font-variant:normal;font-weight:normal;font-stretch:normal;font-size:10px;font-family:Lato;-inkscape-font-specification:Lato;fill:#006780;fill-opacity:1">Reuse, and</tspan><tspan
         sodipodi:role="line"
         x="239.7258"
         y="208.32797"
         id="tspan4607"
         style="font-style:normal;font-variant:normal;font-weight:normal;font-stretch:normal;font-size:10px;font-family:Lato;-inkscape-font-specification:Lato;fill:#006780;fill-opacity:1">Cite</tspan></text>
    <text
       sodipodi:linespacing="125%"
       id="text4609"
       y="131.95181"
       x="421.89587"
       style="font-style:normal;font-weight:normal;font-size:20px;line-height:125%;font-family:sans-serif;text-align:center;letter-spacing:0px;word-spacing:0px;text-anchor:middle;fill:#006780;fill-opacity:1;stroke:none;stroke-width:1px;stroke-linecap:butt;stroke-linejoin:miter;stroke-opacity:1"
       xml:space="preserve"><tspan
         style="font-style:normal;font-variant:normal;font-weight:normal;font-stretch:normal;font-size:10px;font-family:Lato;-inkscape-font-specification:Lato;fill:#006780;fill-opacity:1"
         id="tspan4615"
         y="131.95181"
         x="421.89587"
         sodipodi:role="line">Plan and</tspan><tspan
         style="font-style:normal;font-variant:normal;font-weight:normal;font-stretch:normal;font-size:10px;font-family:Lato;-inkscape-font-specification:Lato;fill:#006780;fill-opacity:1"
         y="144.45181"
         x="421.89587"
         sodipodi:role="line"
         id="tspan4622">Design</tspan></text>
    <text
       xml:space="preserve"
       style="font-style:normal;font-weight:normal;font-size:20px;line-height:125%;font-family:sans-serif;text-align:center;letter-spacing:0px;word-spacing:0px;text-anchor:middle;fill:#006780;fill-opacity:1;stroke:none;stroke-width:1px;stroke-linecap:butt;stroke-linejoin:miter;stroke-opacity:1"
       x="554.36749"
       y="273.57809"
       id="text4624"
       sodipodi:linespacing="125%"><tspan
         id="tspan4628"
         sodipodi:role="line"
         x="554.36749"
         y="273.57809"
         style="font-style:normal;font-variant:normal;font-weight:normal;font-stretch:normal;font-size:10px;font-family:Lato;-inkscape-font-specification:Lato;fill:#006780;fill-opacity:1">Collect and</tspan><tspan
         sodipodi:role="line"
         x="554.36749"
         y="286.07809"
         style="font-style:normal;font-variant:normal;font-weight:normal;font-stretch:normal;font-size:10px;font-family:Lato;-inkscape-font-specification:Lato;fill:#006780;fill-opacity:1"
         id="tspan4632">Capture</tspan></text>
    <text
       sodipodi:linespacing="125%"
       id="text4634"
       y="460.0975"
       x="502.74869"
       style="font-style:normal;font-weight:normal;font-size:20px;line-height:125%;font-family:sans-serif;text-align:center;letter-spacing:0px;word-spacing:0px;text-anchor:middle;fill:#006780;fill-opacity:1;stroke:none;stroke-width:1px;stroke-linecap:butt;stroke-linejoin:miter;stroke-opacity:1"
       xml:space="preserve"><tspan
         id="tspan4638"
         style="font-style:normal;font-variant:normal;font-weight:normal;font-stretch:normal;font-size:10px;font-family:Lato;-inkscape-font-specification:Lato;fill:#006780;fill-opacity:1"
         y="460.0975"
         x="502.74869"
         sodipodi:role="line">Collaborate</tspan><tspan
         style="font-style:normal;font-variant:normal;font-weight:normal;font-stretch:normal;font-size:10px;font-family:Lato;-inkscape-font-specification:Lato;fill:#006780;fill-opacity:1"
         y="472.5975"
         x="502.74869"
         sodipodi:role="line"
         id="tspan4642">and Analyze</tspan></text>
    <text
       sodipodi:linespacing="125%"
       id="text4644"
       y="383.75449"
       x="189.14001"
       style="font-style:normal;font-weight:normal;font-size:20px;line-height:125%;font-family:sans-serif;text-align:center;letter-spacing:0px;word-spacing:0px;text-anchor:middle;fill:#006780;fill-opacity:1;stroke:none;stroke-width:1px;stroke-linecap:butt;stroke-linejoin:miter;stroke-opacity:1"
       xml:space="preserve"><tspan
         style="font-style:normal;font-variant:normal;font-weight:normal;font-stretch:normal;font-size:10px;font-family:Lato;-inkscape-font-specification:Lato;fill:#006780;fill-opacity:1"
         id="tspan4650"
         y="383.75449"
         x="189.14001"
         sodipodi:role="line">Share and</tspan><tspan
         style="font-style:normal;font-variant:normal;font-weight:normal;font-stretch:normal;font-size:10px;font-family:Lato;-inkscape-font-specification:Lato;fill:#006780;fill-opacity:1"
         y="396.25449"
         x="189.14001"
         sodipodi:role="line"
         id="tspan4657">Publish</tspan></text>
    <text
       xml:space="preserve"
       style="font-style:normal;font-weight:normal;font-size:20px;line-height:125%;font-family:sans-serif;text-align:center;letter-spacing:0px;word-spacing:0px;text-anchor:middle;fill:#006780;fill-opacity:1;stroke:none;stroke-width:1px;stroke-linecap:butt;stroke-linejoin:miter;stroke-opacity:1"
       x="312.90094"
       y="518.13068"
       id="text4659"
       sodipodi:linespacing="125%"><tspan
         sodipodi:role="line"
         x="312.90094"
         y="518.13068"
         style="font-style:normal;font-variant:normal;font-weight:normal;font-stretch:normal;font-size:10px;font-family:Lato;-inkscape-font-specification:Lato;fill:#006780;fill-opacity:1"
         id="tspan4667">Manage, Store,</tspan><tspan
         sodipodi:role="line"
         x="312.90094"
         y="530.63068"
         style="font-style:normal;font-variant:normal;font-weight:normal;font-stretch:normal;font-size:10px;font-family:Lato;-inkscape-font-specification:Lato;fill:#006780;fill-opacity:1"
         id="tspan4675">and Preserve</tspan></text>
    <g
       id="g4773"
       transform="translate(804.3498,297.76067)">
      <g
         id="g4749"
         display="none"
         style="display:none">
        <rect
           id="rect4751"
           height="372.66699"
           width="365.668"
           display="inline"
           y="-7.6669998"
           x="-0.0020000001"
           style="display:inline;fill:#000000" />
      </g>
      <g
         id="g4753"
         transform="matrix(0.8232233,0,0,0.8232233,-576.99914,6.3639614)"
         style="fill:#87cdde">
        <g
           id="g4755"
           style="fill:#87cdde">
          <path
             id="path4757"
             d="m 22.628,25.702 c 3.794,0 6.96,-2.742 7.621,-6.348 l -7.621,0 -1.4,0 0,-1.4 0,-7.621 c -3.606,0.661 -6.348,3.827 -6.348,7.621 10e-4,4.273 3.476,7.748 7.748,7.748 z"
             inkscape:connector-curvature="0"
             style="fill:#87cdde" />
          <path
             id="path4759"
             d="m 25.488,8.874 0,6.221 6.221,0 C 31.132,11.943 28.64,9.452 25.488,8.874 Z"
             inkscape:connector-curvature="0"
             style="fill:#87cdde" />
          <path
             id="path4761"
             d="M 8,0 8,64 48.667,64 56,56.667 56,0 8,0 Z m 39.288,19.691 1.4,0 0,5.838 -1.4,0 0,-5.838 z m -2.823,-5.191 1.4,0 0,11.03 -1.4,0 0,-11.03 z m -2.823,-5.091 1.4,0 0,16.121 -1.4,0 0,-16.121 z m -2.824,5.431 1.4,0 0,10.689 -1.4,0 0,-10.689 z m -2.822,7.472 1.4,0 0,3.217 -1.4,0 0,-3.217 z M 24.088,7.347 c 5.052,0 9.148,4.096 9.148,9.148 l -9.148,0 0,-9.148 z m -1.46,1.46 0,9.148 9.148,0 c 0,5.052 -4.096,9.148 -9.148,9.148 -5.052,0 -9.148,-4.096 -9.148,-9.148 0,-5.052 4.096,-9.148 9.148,-9.148 z M 18.543,54 l -3.306,-3.215 1.255,-1.362 1.904,1.852 4.53,-5.505 1.394,1.211 L 18.543,54 Z m 0,-10.71 -3.306,-3.215 1.255,-1.362 1.904,1.852 4.53,-5.505 1.394,1.211 -5.777,7.019 z m 30.221,9.048 -20.888,0 0,-1.4 20.887,0 0,1.4 z m 0,-3.508 -20.888,0 0,-1.4 20.887,0 0,1.4 z m 0,-7.201 -20.888,0 0,-1.4 20.887,0 0,1.4 z m 0,-3.508 -20.888,0 0,-1.4 20.887,0 0,1.4 z m 0.115,23.687 0,-4.929 4.929,0 -4.929,4.929 z"
             inkscape:connector-curvature="0"
             style="fill:#87cdde" />
        </g>
      </g>
    </g>
  </g>
</svg>
