<?xml version="1.0" encoding="UTF-8" standalone="no"?>
<!-- Created with Inkscape (http://www.inkscape.org/) -->

<svg
   xmlns:dc="http://purl.org/dc/elements/1.1/"
   xmlns:cc="http://creativecommons.org/ns#"
   xmlns:rdf="http://www.w3.org/1999/02/22-rdf-syntax-ns#"
   xmlns:svg="http://www.w3.org/2000/svg"
   xmlns="http://www.w3.org/2000/svg"
   xmlns:sodipodi="http://sodipodi.sourceforge.net/DTD/sodipodi-0.dtd"
   xmlns:inkscape="http://www.inkscape.org/namespaces/inkscape"
   id="svg2"
   version="1.1"
   inkscape:version="0.91 r13725"
   width="406.01526"
   height="191.18195"
   xml:space="preserve"
   sodipodi:docname="fsf-future.svg"
   inkscape:export-filename="/home/donald/Desktop/FSF-1.png"
   inkscape:export-xdpi="90"
   inkscape:export-ydpi="90"><metadata
     id="metadata8"><rdf:RDF><cc:Work
         rdf:about=""><dc:format>image/svg+xml</dc:format><dc:type
           rdf:resource="http://purl.org/dc/dcmitype/StillImage" /><dc:title></dc:title></cc:Work></rdf:RDF></metadata><defs
     id="defs6"><inkscape:perspective
       sodipodi:type="inkscape:persp3d"
       inkscape:vp_x="0 : 0.5 : 1"
       inkscape:vp_y="0 : 1000 : 0"
       inkscape:vp_z="1 : 0.5 : 1"
       inkscape:persp3d-origin="0.5 : 0.33333333 : 1"
       id="perspective10" /><clipPath
       clipPathUnits="userSpaceOnUse"
       id="clipPath20"><path
         d="M 0,2160 0,0 l 3240,0 0,2160 -3240,0 z"
         id="path22"
         inkscape:connector-curvature="0" /></clipPath></defs><sodipodi:namedview
     pagecolor="#ffffff"
     bordercolor="#666666"
     borderopacity="1"
     objecttolerance="10"
     gridtolerance="10"
     guidetolerance="10"
     inkscape:pageopacity="0"
     inkscape:pageshadow="2"
     inkscape:window-width="1920"
     inkscape:window-height="1057"
     id="namedview4"
     showgrid="false"
     showguides="true"
     inkscape:guide-bbox="true"
     inkscape:zoom="2.5368505"
     inkscape:cx="183.4071"
     inkscape:cy="73.648848"
     inkscape:window-x="-8"
     inkscape:window-y="1072"
     inkscape:window-maximized="1"
     inkscape:current-layer="g12"
     fit-margin-top="0"
     fit-margin-left="0"
     fit-margin-right="0"
     fit-margin-bottom="0" /><g
     id="g12"
     inkscape:groupmode="layer"
     inkscape:label="ink_ext_XXXXXX"
     transform="matrix(1.25,0,0,-1.25,0.78837916,223.89967)"><path
       id="path24"
       style="fill:#9b182f;fill-opacity:1;fill-rule:nonzero;stroke:none"
       d="m 35.346291,97.278904 0,-2.053834 3.39541,0 0,-1.304563 -3.39541,0 0,-3.991063 -1.72711,0 0,8.711511 6.38894,0 0,-1.362051 -4.66183,0"
       inkscape:connector-curvature="0" /><path
       id="path26"
       style="fill:#9b182f;fill-opacity:1;fill-rule:nonzero;stroke:none"
       d="m 43.524031,97.283937 0,-2.428963 c 0.31902,-0.02156 0.56383,-0.03237 0.73249,-0.03237 0.72322,0 1.25102,0.0908 1.58638,0.271799 0.33387,0.181198 0.50214,0.537379 0.50214,1.068441 0,0.428719 -0.18021,0.72825 -0.53915,0.898445 -0.35909,0.170194 -0.92485,0.255612 -1.69682,0.255612 -0.18603,0 -0.38129,-0.0114 -0.58504,-0.03296 m 3.68457,-7.354493 -2.58874,3.58835 c -0.26213,0 -0.62645,0.01273 -1.09583,0.03992 l 0,-3.628271 -1.78396,0 0,8.695671 c 0.0964,0 0.47031,0.01525 1.11991,0.04648 0.64959,0.03045 1.17389,0.04624 1.57098,0.04624 2.46538,0 3.69844,-0.857191 3.69844,-2.569846 0,-0.517147 -0.16941,-0.986922 -0.51019,-1.411348 -0.34083,-0.423883 -0.7695,-0.722476 -1.28862,-0.8942 l 2.87401,-3.912998 -1.996,0"
       inkscape:connector-curvature="0" /><path
       id="path28"
       style="fill:#9b182f;fill-opacity:1;fill-rule:nonzero;stroke:none"
       d="m 51.959151,97.278904 0,-2.053834 3.12751,0 0,-1.304563 -3.12751,0 0,-2.628666 4.39397,0 0,-1.362397 -6.12015,0 0,8.711511 6.12015,0 0,-1.362051 -4.39397,0"
       inkscape:connector-curvature="0" /><path
       id="path30"
       style="fill:#9b182f;fill-opacity:1;fill-rule:nonzero;stroke:none"
       d="m 59.881371,97.278904 0,-2.053834 3.12805,0 0,-1.304563 -3.12805,0 0,-2.628666 4.39427,0 0,-1.362397 -6.12138,0 0,8.711511 6.12138,0 0,-1.362051 -4.39427,0"
       inkscape:connector-curvature="0" /><path
       id="path32"
       style="fill:#9b182f;fill-opacity:1;fill-rule:nonzero;stroke:none"
       d="m 69.908001,90.405536 0.63706,1.385144 c 0.68048,-0.43464 1.34962,-0.652848 2.00789,-0.652848 1.01209,0 1.51888,0.318825 1.51888,0.956278 0,0.296076 -0.12041,0.579816 -0.35776,0.849295 -0.23933,0.269874 -0.73082,0.573451 -1.47693,0.909449 -0.74463,0.33654 -1.24698,0.612385 -1.50407,0.830001 -0.25857,0.21663 -0.45843,0.474759 -0.59659,0.773747 -0.14113,0.299136 -0.20923,0.627584 -0.20923,0.986527 0,0.677325 0.27338,1.238439 0.82507,1.683541 0.54872,0.445052 1.25487,0.667702 2.11546,0.667702 1.12164,0 1.94473,-0.18791 2.47076,-0.564569 l -0.52356,-1.335256 c -0.604,0.384357 -1.24204,0.57577 -1.91118,0.57577 -0.39624,0 -0.70367,-0.09405 -0.92277,-0.28221 -0.21811,-0.18791 -0.32667,-0.432716 -0.32667,-0.733234 0,-0.499826 0.61387,-1.020477 1.84407,-1.55978 0.64742,-0.287244 1.11472,-0.550357 1.40093,-0.788008 0.2872,-0.239033 0.50481,-0.517739 0.65532,-0.837946 0.1505,-0.320355 0.22502,-0.676584 0.22502,-1.069379 0,-0.706686 -0.3099,-1.28744 -0.93067,-1.741967 -0.61979,-0.454922 -1.45127,-0.682012 -2.49198,-0.682012 -0.90501,0 -1.72119,0.209721 -2.44905,0.629755"
       inkscape:connector-curvature="0" /><path
       id="path34"
       style="fill:#9b182f;fill-opacity:1;fill-rule:nonzero;stroke:none"
       d="m 78.832741,94.348239 c 0,-1.016431 0.19294,-1.80656 0.57685,-2.36807 0.3854,-0.561114 0.94498,-0.842337 1.68024,-0.842337 0.86306,0 1.52085,0.274315 1.97434,0.822698 0.45349,0.548185 0.68097,1.344089 0.68097,2.387709 0,2.043027 -0.84135,3.064442 -2.52356,3.064442 -0.7693,0 -1.36047,-0.275844 -1.77103,-0.829409 -0.41154,-0.552874 -0.61781,-1.297457 -0.61781,-2.235033 m -1.78534,0.0065 c 0,1.241005 0.37897,2.291139 1.13742,3.151242 0.75747,0.859115 1.77005,1.288377 3.03676,1.288377 1.3965,0 2.46385,-0.388798 3.20108,-1.165999 0.73724,-0.778139 1.10684,-1.868786 1.10684,-3.27362 0,-1.404982 -0.3849,-2.519118 -1.15618,-3.343198 -0.77079,-0.823636 -1.86528,-1.235774 -3.28349,-1.235774 -1.30224,0 -2.30249,0.408684 -2.99827,1.225757 -0.69627,0.817319 -1.04416,1.934909 -1.04416,3.353215"
       inkscape:connector-curvature="0" /><path
       id="path36"
       style="fill:#9b182f;fill-opacity:1;fill-rule:nonzero;stroke:none"
       d="m 88.980271,97.278904 0,-2.053834 3.396,0 0,-1.304563 -3.396,0 0,-3.991063 -1.72662,0 0,8.711511 6.38933,0 0,-1.362051 -4.66271,0"
       inkscape:connector-curvature="0" /><path
       id="path38"
       style="fill:#9b182f;fill-opacity:1;fill-rule:nonzero;stroke:none"
       d="m 99.530471,97.278904 0,-7.34946 -1.72712,0 0,7.34946 -3.08857,0 0,1.362051 8.039959,0 0,-1.362051 -3.224269,0"
       inkscape:connector-curvature="0" /><path
       id="path40"
       style="fill:#9b182f;fill-opacity:1;fill-rule:nonzero;stroke:none"
       d="m 112.09694,89.814369 -0.71107,0 -2.11054,5.487829 -2.0528,-5.487829 -0.71058,0 -3.1843,8.826586 1.8031,0 1.81298,-5.257876 1.96693,5.257876 0.74809,0 1.96792,-5.257876 1.81298,5.257876 1.80409,0 -3.1468,-8.826586"
       inkscape:connector-curvature="0" /><path
       id="path42"
       style="fill:#9b182f;fill-opacity:1;fill-rule:nonzero;stroke:none"
       d="m 118.81541,96.088627 -1.16703,-3.204388 2.32963,0 -1.1626,3.204388 m 2.3701,-6.159183 -0.70565,1.764518 -3.321,0 -0.67554,-1.764518 -1.91809,0 3.87614,8.826981 0.74809,0 3.89488,-8.826981 -1.89883,0"
       inkscape:connector-curvature="0" /><path
       id="path44"
       style="fill:#9b182f;fill-opacity:1;fill-rule:nonzero;stroke:none"
       d="m 125.92174,97.283937 0,-2.428963 c 0.31878,-0.02156 0.56304,-0.03237 0.73131,-0.03237 0.72391,0 1.25241,0.0908 1.58747,0.271799 0.33358,0.181198 0.50234,0.537379 0.50234,1.068441 0,0.428719 -0.18061,0.72825 -0.53985,0.898445 -0.35874,0.170194 -0.92425,0.255612 -1.69651,0.255612 -0.18604,0 -0.38145,-0.0114 -0.58476,-0.03296 m 3.68418,-7.354493 -2.58919,3.58835 c -0.26153,0 -0.6257,0.01273 -1.09499,0.03992 l 0,-3.628271 -1.78435,0 0,8.695671 c 0.0967,0 0.46977,0.01525 1.12016,0.04648 0.64939,0.03045 1.17295,0.04624 1.57118,0.04624 2.46533,0 3.69799,-0.857191 3.69799,-2.569846 0,-0.517147 -0.16975,-0.986922 -0.51073,-1.411348 -0.34049,-0.423883 -0.76931,-0.722476 -1.28744,-0.8942 l 2.87293,-3.912998 -1.99556,0"
       inkscape:connector-curvature="0" /><path
       id="path46"
       style="fill:#9b182f;fill-opacity:1;fill-rule:nonzero;stroke:none"
       d="m 134.35647,97.278904 0,-2.053834 3.12707,0 0,-1.304563 -3.12707,0 0,-2.628666 4.39329,0 0,-1.362397 -6.1204,0 0,8.711511 6.1204,0 0,-1.362051 -4.39329,0"
       inkscape:connector-curvature="0" /><path
       id="path48"
       style="fill:#9b182f;fill-opacity:1;fill-rule:nonzero;stroke:none"
       d="m 36.627171,85.88943 0,-1.391165 2.12997,0 0,-0.585195 -2.12997,0 0,-2.427434 -0.82502,0 0,5.026986 3.74142,0 0,-0.623192 -2.9164,0"
       inkscape:connector-curvature="0" /><path
       id="path50"
       style="fill:#9b182f;fill-opacity:1;fill-rule:nonzero;stroke:none"
       d="m 46.860661,84.043343 c 0,-0.579422 0.1359,-1.062471 0.40962,-1.449689 0.27373,-0.387466 0.66021,-0.580409 1.15752,-0.580409 0.56323,0 0.99368,0.177152 1.28956,0.533332 0.29588,0.35549 0.44372,0.854329 0.44372,1.496766 0,1.300171 -0.57711,1.951145 -1.73328,1.951145 -0.51079,0 -0.90018,-0.174685 -1.16655,-0.523562 -0.26701,-0.347939 -0.40059,-0.824031 -0.40059,-1.427583 m -0.87318,-9.37e-4 c 0,0.730371 0.21974,1.34024 0.65927,1.829654 0.44041,0.490945 1.03414,0.736737 1.78105,0.736737 0.84046,0 1.48581,-0.226498 1.93338,-0.677571 0.44816,-0.45201 0.67273,-1.081568 0.67273,-1.88882 0,-0.825215 -0.22457,-1.472488 -0.67466,-1.941868 -0.45008,-0.467209 -1.09297,-0.701257 -1.93145,-0.701257 -0.76428,0 -1.36181,0.24673 -1.79265,0.741375 -0.43178,0.494794 -0.64767,1.128398 -0.64767,1.90175"
       inkscape:connector-curvature="0" /><path
       id="path52"
       style="fill:#9b182f;fill-opacity:1;fill-rule:nonzero;stroke:none"
       d="m 58.011151,86.512622 0.82507,0 0,-3.443864 c 0,-0.306834 0.11596,-0.55919 0.35184,-0.757907 0.23488,-0.199506 0.54478,-0.297606 0.93165,-0.297606 0.4076,0 0.73032,0.09578 0.96422,0.287786 0.2344,0.190822 0.35234,0.451813 0.35234,0.784505 l 0,3.427086 0.82506,0 0,-3.500711 c 0,-0.50713 -0.19097,-0.902885 -0.57389,-1.187168 -0.38095,-0.284135 -0.90057,-0.425462 -1.56033,-0.425462 -0.67851,0 -1.1996,0.13881 -1.56624,0.417517 -0.36714,0.277769 -0.54972,0.678509 -0.54972,1.200146 l 0,3.495678"
       inkscape:connector-curvature="0" /><path
       id="path54"
       style="fill:#9b182f;fill-opacity:1;fill-rule:nonzero;stroke:none"
       d="m 73.447111,81.41818 -3.12756,3.674755 0,-3.607299 -0.78806,0 0,5.026986 0.33704,0 3.0407,-3.472929 0,3.472929 0.78609,0 0,-5.094442 -0.24821,0"
       inkscape:connector-curvature="0" /><path
       id="path56"
       style="fill:#9b182f;fill-opacity:1;fill-rule:nonzero;stroke:none"
       d="m 81.790541,85.900188 0,-3.768611 c 0.18406,-0.02156 0.41451,-0.03198 0.68789,-0.03198 0.57981,0 1.03479,0.179619 1.36689,0.540882 0.33061,0.360621 0.4974,0.86257 0.4974,1.503526 0,1.194669 -0.64594,1.79378 -1.93535,1.79378 -0.0775,0 -0.28374,-0.01387 -0.61683,-0.0376 m 0.39576,-4.414552 -1.22181,0 0,5.03197 c 0.77967,0.02161 1.27806,0.03356 1.49667,0.03356 0.84678,0 1.51838,-0.213224 2.01282,-0.640561 0.49495,-0.426745 0.74217,-0.996347 0.74217,-1.708412 0,-1.810952 -1.01012,-2.716552 -3.02985,-2.716552"
       inkscape:connector-curvature="0" /><path
       id="path58"
       style="fill:#9b182f;fill-opacity:1;fill-rule:nonzero;stroke:none"
       d="m 94.120651,85.265646 -0.94053,-2.216133 1.79915,0 -0.85862,2.216133 m 1.51197,-3.78001 -0.41846,1.055168 -2.25314,0 -0.44708,-1.055168 -0.93116,0 2.46632,5.094639 0.22008,0 2.28374,-5.094639 -0.9203,0"
       inkscape:connector-curvature="0" /><path
       id="path60"
       style="fill:#9b182f;fill-opacity:1;fill-rule:nonzero;stroke:none"
       d="m 104.59387,85.88943 0,-4.403794 -0.82408,0 0,4.403794 -1.92943,0 0,0.623192 4.7688,0 0,-0.623192 -2.01529,0"
       inkscape:connector-curvature="0" /><path
       id="path62"
       style="fill:#9b182f;fill-opacity:1;fill-rule:nonzero;stroke:none"
       d="m 113.47617,81.485636 0.825,0 0,5.026937 -0.825,0 0,-5.026937 z"
       inkscape:connector-curvature="0" /><path
       id="path64"
       style="fill:#9b182f;fill-opacity:1;fill-rule:nonzero;stroke:none"
       d="m 122.29974,84.043343 c 0,-0.579422 0.1362,-1.062471 0.40957,-1.449689 0.27437,-0.387466 0.65927,-0.580409 1.15766,-0.580409 0.56304,0 0.99285,0.177152 1.28942,0.533332 0.29509,0.35549 0.44362,0.854329 0.44362,1.496766 0,1.300171 -0.57735,1.951145 -1.73304,1.951145 -0.51172,0 -0.90106,-0.174685 -1.16753,-0.523562 -0.26696,-0.347939 -0.3997,-0.824031 -0.3997,-1.427583 m -0.87342,-9.37e-4 c 0,0.730371 0.22008,1.34024 0.65926,1.829654 0.44066,0.490945 1.03331,0.736737 1.78139,0.736737 0.84037,0 1.48532,-0.226498 1.93388,-0.677571 0.44757,-0.45201 0.67209,-1.081568 0.67209,-1.88882 0,-0.825215 -0.22551,-1.472488 -0.67456,-1.941868 -0.44905,-0.467209 -1.09302,-0.701257 -1.93141,-0.701257 -0.76437,0 -1.36195,0.24673 -1.79373,0.741375 -0.43178,0.494794 -0.64692,1.128398 -0.64692,1.90175"
       inkscape:connector-curvature="0" /><path
       id="path66"
       style="fill:#9b182f;fill-opacity:1;fill-rule:nonzero;stroke:none"
       d="m 137.36412,81.41818 -3.12805,3.674755 0,-3.607299 -0.78608,0 0,5.026986 0.33506,0 3.0412,-3.472929 0,3.472929 0.78707,0 0,-5.094442 -0.2492,0"
       inkscape:connector-curvature="0" /><path
       id="path68"
       style="fill:#9b182f;fill-opacity:1;fill-rule:nonzero;stroke:none"
       d="m 86.190241,157.90408 c 21.442849,0 40.845249,-5.73105 54.768249,-14.8512 13.92349,-9.11916 22.16676,-21.45321 22.16676,-34.61481 0,-13.161137 -8.24327,-25.480341 -22.16676,-34.599894 -13.923,-9.1198 -33.3254,-14.850289 -54.768249,-14.850289 -21.44236,0 -40.85679,5.730489 -54.78009,14.850289 -13.9229,9.119553 -22.1668022,21.438757 -22.1668022,34.599894 0,13.1616 8.2439022,25.49565 22.1668022,34.61481 13.9233,9.12015 33.33773,14.8512 54.78009,14.8512 m 0,3.83567 c -21.85588,0 -41.67352,-5.77596 -56.14579,-15.25534 -14.472273,-9.47889 -23.8008072,-22.84724 -23.8008072,-38.04634 0,-15.198588 9.3285342,-28.552678 23.8008072,-38.030978 14.47227,-9.478891 34.28991,-15.254901 56.14579,-15.254901 21.856869,0 41.661919,5.77601 56.134149,15.254901 14.47222,9.4783 23.80061,22.83239 23.80061,38.030978 0,15.1991 -9.32839,28.56745 -23.80061,38.04634 -14.47223,9.47938 -34.27728,15.25534 -56.134149,15.25534"
       inkscape:connector-curvature="0" /><path
       id="path70"
       style="fill:#9b182f;fill-opacity:1;fill-rule:nonzero;stroke:none"
       d="m 121.90547,146.92211 c -0.19196,0.0957 -10.01479,-0.45152 -10.56698,-0.40168 -0.55218,0.0508 -6.46927,-0.0345 -9.71378,0.0508 -3.840599,0.0997 -7.870699,-0.005 -11.621499,-0.35233 -3.78978,-0.35135 -7.70539,-1.53023 -10.94299,-2.88576 -3.08166,-1.2904 -6.15,-2.91192 -8.56006,-4.81964 -1.23366,-0.97656 -2.17222,-2.06168 -3.0116,-3.3881 -0.95287,-1.50604 -1.41327,-3.22625 -0.77769,-4.66863 0.68394,-1.55293 2.21564,-2.24081 4.11546,-2.5359 1.72564,-0.26795 3.8411,-0.12534 5.19664,-0.40069 0.80484,-0.16383 2.12484,-0.38095 2.20824,-1.1547 0.0755,-0.70318 -1.19319,-1.8786 -1.78238,-2.1584 -1.10387,-0.52751 -2.58475,-0.0755 -4.01579,0.22551 -0.98593,0.20726 -2.44954,0.6874 -3.36392,1.10486 -0.61683,0.28177 -1.27658,0.50481 -1.40192,0.50481 -0.0503,0 -19.38493,0.0503 -19.35927,0 0,-0.32617 -0.0257,-16.08139 0,-16.83491 0.0264,-0.83099 2.89558,-0.58475 4.67224,-0.41204 3.43266,0.33555 7.00236,0.75302 10.46695,1.25438 1.98124,0.28719 4.07895,0.65926 6.07401,1.05502 3.16358,0.62719 6.94448,1.50604 8.51763,2.00789 3.93239,1.25487 7.999,2.35973 11.71279,3.96595 1.67086,0.72144 3.66543,1.63088 5.02047,2.56007 1.44535,0.98988 2.98741,2.35924 3.63928,3.76511 0.72538,1.56082 0.94744,3.43992 0.20133,5.14581 -0.70269,1.60622 -2.63508,3.03676 -4.3168,3.3131 -0.95731,0.15692 -1.70688,0.25018 -2.63607,0.17567 -1.06785,-0.0868 -2.88625,-0.47718 -4.09128,-0.62768 -1.98026,-0.24772 -4.30742,-0.60005 -6.25018,-0.30151 -1.30471,0.20084 -3.36294,1.88256 -2.63557,3.84012 0.53343,1.43597 2.59955,2.90895 3.8411,3.71526 3.01208,1.95806 8.43028,3.66642 13.07721,4.7693 3.91561,0.9282 9.412269,1.68172 14.055739,1.73156 0.44806,0.004 4.64248,0.2862 5.06982,0.3015 7.05303,0.25117 7.27904,1.40538 7.17887,1.45571 M 63.665721,133.42694 c 0.47175,1.98618 1.79176,4.00986 3.37231,5.69404 l -18.49457,-0.074 -0.0674,-5.82629 15.09447,-0.0612 0.0706,-0.1209 m -19.54258,-7.37033 -10.10016,0 0,7.57512 10.10016,0 0,5.89242 -1.68374,0 0,4.20873 1.68374,0 0,1.68319 4.20946,0 0,-1.68319 25.25119,0 c 6.97507,3.65457 15.16307,4.36515 22.2393,4.452 7.810499,0.10067 8.215139,0.0123 11.401419,-0.0104 13.48727,-0.10017 14.41744,-0.15988 16.32072,0.14014 0.76684,0.12682 1.60869,-0.38046 1.6753,-0.75943 0.15495,-0.8379 -1.59289,-1.80903 -2.13273,-1.97977 -1.67777,-0.53294 -4.68098,-0.77375 -12.85121,-1.245 l -0.19442,-0.004 c -12.975559,-1.22477 -20.254599,-4.28374 -22.135669,-5.15963 -7.43992,-3.47199 -8.24278,-5.08857 -7.27609,-6.1199 1.02542,-1.0945 6.81815,1.31211 9.65852,2.12336 5.6442,1.60967 8.97013,0.0676 11.071289,-1.53812 l 5.05008,0 0,0.84184 3.36737,0 0,-0.84184 28.61778,0 0,-7.57512 -28.61778,0 0,-5.89242 24.41004,0 0,-4.20823 -24.41004,0 0,-13.46764 -3.36737,0 0,13.46764 -1.68369,0 0,4.20823 1.68369,0 0,5.89242 -1.68369,0 c -0.0286,-2.97754 -0.90057,-5.70737 -1.73551,-6.83147 -7.789769,-10.46384 -43.122069,-11.81 -54.068269,-11.98864 -2.76165,-0.0474 -4.7386,0.41599 -4.79969,1.14434"
       inkscape:connector-curvature="0" /><path
       id="path72"
       style="fill:#9b182f;fill-opacity:1;fill-rule:nonzero;stroke:none"
       d="m 64.849041,63.844407 0.66272,-0.104071 1.31853,2.769944 0.39723,-3.036907 0.6716,-0.10407 2.3173,4.229848 -1.14878,0.179275 -1.24402,-2.607991 -0.30989,2.85028 -0.85862,0.132642 -1.17789,-2.617662 -0.37602,2.859557 -1.15618,0.181594 0.90402,-4.732439"
       inkscape:connector-curvature="0" /><path
       id="path74"
       style="fill:#9b182f;fill-opacity:1;fill-rule:nonzero;stroke:none"
       d="m 71.341011,62.923214 0.66766,-0.06859 1.17098,2.836413 0.55613,-3.012974 0.67752,-0.06824 2.08882,4.346503 -1.15618,0.118924 -1.10436,-2.67066 -0.45991,2.830442 -0.86355,0.08794 -1.03923,-2.67668 -0.52653,2.835476 -1.16407,0.118579 1.15272,-4.677122"
       inkscape:connector-curvature="0" /><path
       id="path76"
       style="fill:#9b182f;fill-opacity:1;fill-rule:nonzero;stroke:none"
       d="m 77.874441,62.348233 0.67012,-0.03143 1.01455,2.895036 0.72046,-2.976951 0.679,-0.03158 1.84998,4.454422 -1.1616,0.05379 -0.95682,-2.724448 -0.61387,2.799997 -0.868,0.04051 -0.89119,-2.729876 -0.67851,2.803895 -1.16999,0.05473 1.40587,-4.608087"
       inkscape:connector-curvature="0" /><path
       id="path78"
       style="fill:#9b182f;fill-opacity:1;fill-rule:nonzero;stroke:none"
       d="m 83.314351,62.153958 1.08907,-0.01081 0.0104,1.048604 -1.08907,0.0098 -0.0104,-1.047617"
       inkscape:connector-curvature="0" /><path
       id="path80"
       style="fill:#9b182f;fill-opacity:1;fill-rule:nonzero;stroke:none"
       d="m 85.487061,62.142559 1.08907,0.0114 -0.036,3.545961 0.61337,0.0054 -0.009,0.909054 -0.61387,-0.0069 c 0.003,0.409572 0.14113,0.55164 0.56748,0.555143 l 0.10609,9.38e-4 -0.0109,1.032222 c -0.13077,0.01446 -0.1964,0.01446 -0.26993,0.01352 -0.4673,-0.0044 -0.85862,-0.180261 -1.13298,-0.519121 -0.2191,-0.2641 -0.29805,-0.527559 -0.34937,-1.093114 l -0.3928,-0.0038 0.009,-0.910041 0.39378,0.005 0.036,-3.545615"
       inkscape:connector-curvature="0" /><path
       id="path82"
       style="fill:#9b182f;fill-opacity:1;fill-rule:nonzero;stroke:none"
       d="m 87.402681,63.598861 c 0.0656,-0.440858 0.14754,-0.667357 0.33654,-0.906143 0.30841,-0.382827 0.83296,-0.600443 1.38169,-0.581198 0.90846,0.03355 1.59536,0.738069 1.56377,1.606659 -0.0143,0.392253 -0.17369,0.713989 -0.4599,0.92524 -0.17715,0.140686 -0.45201,0.245743 -0.84875,0.354848 -0.44659,0.123365 -0.44659,0.123365 -0.55515,0.167332 -0.14952,0.06109 -0.22748,0.164224 -0.23192,0.294892 -0.008,0.220726 0.1658,0.391315 0.40315,0.400395 0.22946,0.0073 0.38095,-0.109105 0.43918,-0.345423 l 1.06341,0.03987 c -0.0301,0.383419 -0.1283,0.609917 -0.35874,0.846779 -0.29756,0.308413 -0.73033,0.473229 -1.17987,0.456846 -0.84283,-0.03045 -1.48384,-0.660202 -1.45522,-1.437748 0.0237,-0.66331 0.39724,-1.026448 1.30817,-1.296519 0.42289,-0.124303 0.45645,-0.138564 0.5734,-0.208192 0.13373,-0.07787 0.21268,-0.197384 0.21762,-0.34483 0.009,-0.253688 -0.1964,-0.449099 -0.47521,-0.459906 -0.31877,-0.0114 -0.50481,0.145522 -0.62521,0.526424 l -1.09696,-0.03933"
       inkscape:connector-curvature="0" /><path
       id="path84"
       style="fill:#9b182f;fill-opacity:1;fill-rule:nonzero;stroke:none"
       d="m 91.370101,62.321636 1.0871,0.06824 -0.22305,3.539053 0.61288,0.03854 -0.0567,0.906932 -0.61288,-0.03854 c -0.0182,0.409572 0.11251,0.557068 0.53689,0.584208 l 0.10659,0.007 -0.0651,1.028965 c -0.13175,0.0088 -0.19689,0.0048 -0.26992,0 -0.46632,-0.02872 -0.84826,-0.226499 -1.10536,-0.577892 -0.2033,-0.275845 -0.26893,-0.542807 -0.29114,-1.10935 l -0.39131,-0.02526 0.0567,-0.906883 0.3923,0.02428 0.22304,-3.53925"
       inkscape:connector-curvature="0" /><path
       id="path86"
       style="fill:#9b182f;fill-opacity:1;fill-rule:nonzero;stroke:none"
       d="m 93.766841,62.485465 1.08512,0.0904 -0.0878,1.04515 -1.08512,-0.09173 0.0878,-1.043818"
       inkscape:connector-curvature="0" /><path
       id="path88"
       style="fill:#9b182f;fill-opacity:1;fill-rule:nonzero;stroke:none"
       d="m 97.660741,66.535348 c 0.7244,0.08789 1.38367,-0.459955 1.47348,-1.208436 0.0908,-0.75692 -0.42142,-1.436613 -1.13644,-1.521785 -0.73181,-0.08793 -1.38219,0.452011 -1.47545,1.223586 -0.0888,0.740192 0.43128,1.421809 1.13841,1.506635 m -0.12682,0.991906 c -1.30964,-0.15845 -2.25413,-1.352576 -2.09918,-2.645 0.15643,-1.300763 1.35702,-2.228865 2.67406,-2.070069 1.30866,0.155983 2.271409,1.344681 2.119419,2.613814 -0.16186,1.341819 -1.336789,2.264146 -2.694299,2.101255"
       inkscape:connector-curvature="0" /><path
       id="path90"
       style="fill:#9b182f;fill-opacity:1;fill-rule:nonzero;stroke:none"
       d="m 101.10411,63.319956 1.07624,0.172712 -0.39773,2.490399 c -0.11004,0.695878 0.15001,1.094101 0.79398,1.212483 l -0.16482,1.034886 -0.0809,-0.01234 c -0.4609,-0.07303 -0.66667,-0.238835 -0.88379,-0.695829 l -0.0696,0.436762 -0.98692,-0.15845 0.71354,-4.480626"
       inkscape:connector-curvature="0" /><path
       id="path92"
       style="fill:#9b182f;fill-opacity:1;fill-rule:nonzero;stroke:none"
       d="m 105.09671,67.721579 c 0.76289,0.154601 1.396,-0.294547 1.55884,-1.105303 0.16185,-0.802812 -0.23686,-1.433899 -0.99926,-1.5885 -0.7624,-0.152875 -1.35702,0.268886 -1.52134,1.080778 -0.16482,0.819046 0.21515,1.462667 0.96176,1.613025 m 1.15568,1.144385 0.113,-0.562052 c -0.41944,0.382432 -0.94448,0.501899 -1.58647,0.374142 -1.2608,-0.255612 -1.99408,-1.421809 -1.72909,-2.738363 0.27683,-1.373203 1.39107,-2.176014 2.65926,-1.920056 0.6262,0.12529 1.00321,0.410609 1.32248,0.98406 0.15198,-0.962841 -0.16334,-1.511027 -0.95831,-1.670859 -0.4979,-0.100222 -0.82852,-0.0341 -1.21144,0.248655 l -1.21145,-0.245152 c 0.54034,-0.818257 1.48038,-1.171969 2.57241,-0.950899 0.80286,0.161707 1.38021,0.570392 1.69109,1.184109 0.22996,0.472242 0.2566,1.045743 0.0854,1.896963 l -0.72687,3.604732 -1.01998,-0.20528"
       inkscape:connector-curvature="0" /><path
       id="path94"
       style="fill:#9b182f;fill-opacity:1;fill-rule:nonzero;stroke:none"
       d="m 86.184321,161.73975 c -44.1503,0 -79.9406772,-23.86031 -79.9406772,-53.29378 0,-29.433955 35.7903772,-53.293779 79.9406772,-53.293779 44.150449,0 79.940679,23.859824 79.940679,53.293779 0,29.43347 -35.79023,53.29378 -79.940679,53.29378 m 75.499529,-53.29378 c 0,-26.979973 -33.80208,-48.852631 -75.499529,-48.852631 -41.69745,0 -75.499528,21.872658 -75.499528,48.852631 0,26.98097 33.802078,48.85313 75.499528,48.85313 41.697449,0 75.499529,-21.87216 75.499529,-48.85313"
       inkscape:connector-curvature="0" /><g
       transform="scale(1,-1)"
       style="font-style:normal;font-weight:normal;font-size:102.09475708px;line-height:125%;font-family:sans-serif;letter-spacing:0px;word-spacing:0px;fill:#743498;fill-opacity:0.55491327;stroke:none;stroke-width:1px;stroke-linecap:butt;stroke-linejoin:miter;stroke-opacity:1"
       id="text7650"><path
         d="m 247.22259,-107.19143 -2.04389,0 q 0.34896,-6.28122 1.54538,-10.369 1.24627,-4.13762 5.0848,-11.46571 2.99105,-5.63316 3.88837,-8.62422 0.89732,-3.04091 0.89732,-6.13167 0,-6.33107 -3.38987,-10.06989 -3.34001,-3.73882 -8.2254,-3.73882 -4.33704,0 -6.82958,2.04389 -2.49255,2.04389 -2.49255,4.43673 0,1.84449 1.49553,4.53644 1.49553,2.69195 1.49553,4.08778 0,1.79463 -1.14658,3.04091 -1.14657,1.19642 -2.79165,1.19642 -2.09374,0 -3.83852,-2.04389 -1.69494,-2.09374 -1.69494,-5.78271 0,-5.63316 4.83555,-9.97019 4.83554,-4.33704 13.1108,-4.33704 10.26929,0 15.10484,5.98212 3.58927,4.38688 3.58927,9.72094 0,3.63911 -1.64509,7.47764 -1.59523,3.83852 -6.13166,9.02302 -7.22839,8.17556 -8.87347,11.61527 -1.59523,3.38987 -1.94419,9.37198 z m -0.69791,6.18152 q 2.34299,0 3.93822,1.645084 1.64508,1.59523 1.64508,3.938225 0,2.293144 -1.64508,3.938226 -1.64508,1.59523 -3.93822,1.59523 -2.29315,0 -3.93823,-1.59523 -1.59523,-1.645082 -1.59523,-3.938226 0,-2.342995 1.59523,-3.938225 1.64508,-1.645084 3.93823,-1.645084 z"
         style="font-style:normal;font-variant:normal;font-weight:normal;font-stretch:normal;font-family:'Times New Roman';-inkscape-font-specification:'Times New Roman, ';fill:#743498;fill-opacity:0.55491327"
         id="path7679" /></g><g
       transform="matrix(0.93719963,-0.34879341,-0.34879341,-0.93719963,0,0)"
       style="font-style:normal;font-weight:normal;font-size:77.18395996px;line-height:125%;font-family:sans-serif;letter-spacing:0px;word-spacing:0px;fill:#9b182f;fill-opacity:1;stroke:none;stroke-width:1px;stroke-linecap:butt;stroke-linejoin:miter;stroke-opacity:1"
       id="text7654"><path
         d="m 216.68279,-190.22607 q -1.809,0 -3.015,-1.206 -1.20599,-1.206 -1.20599,-4.5225 0,-5.42699 4.52249,-9.64799 4.5225,-4.5225 11.1555,-4.5225 6.63299,0 10.85399,3.9195 4.221,3.9195 4.221,10.25099 0,3.3165 -1.206,6.3315 -1.206,2.7135 -5.427,5.1255 -4.52249,2.7135 -6.63299,4.5225 -1.809,1.50749 -1.809,4.82399 l 0,5.427 -2.412,0 0,-6.03 q 0,-3.3165 0.9045,-5.12549 1.206,-2.1105 3.9195,-3.9195 4.52249,-3.015 5.72849,-5.427 1.5075,-2.412 1.5075,-6.03 0,-5.72849 -2.7135,-8.44199 -2.412,-2.7135 -7.53749,-2.7135 -5.427,0 -8.442,3.015 -3.015,2.7135 -3.015,5.427 0,0.90449 0.3015,1.50749 0.603,0.3015 1.5075,0.9045 1.206,0.603 1.5075,1.5075 0.603,0.9045 0.603,2.1105 0,1.5075 -0.9045,2.1105 -0.9045,0.603 -2.412,0.603 z m 14.7735,29.84849 q 0,1.80899 -1.206,3.01499 -1.206,1.206 -3.015,1.206 -1.809,0 -3.015,-1.206 -1.206,-1.206 -1.206,-3.01499 0,-1.809 1.206,-3.015 1.206,-1.206 3.015,-1.206 1.809,0 3.015,1.206 1.206,1.206 1.206,3.015 z"
         style="font-style:normal;font-variant:normal;font-weight:normal;font-stretch:normal;font-family:NSimSun;-inkscape-font-specification:NSimSun;fill:#9b182f;fill-opacity:1"
         id="path7676" /></g><g
       transform="matrix(0.92534231,0.3791327,0.3791327,-0.92534231,0,0)"
       style="font-style:normal;font-weight:normal;font-size:63.41150665px;line-height:125%;font-family:sans-serif;letter-spacing:0px;word-spacing:0px;fill:#ff89ff;fill-opacity:1;stroke:none;stroke-width:1px;stroke-linecap:butt;stroke-linejoin:miter;stroke-opacity:1"
       id="text7658"><path
         d="m 230.92763,8.8980115 q 0,-2.0435349 0.18577,-3.715518 0.21674,-1.6719831 0.71214,-3.0653023 0.4954,-1.42428192 1.3314,-2.60086261 0.83599,-1.20754339 2.10546,-2.29123609 2.16738,-1.7958337 3.40589,-3.4368541 1.26947,-1.6410204 1.26947,-3.5916674 0,-2.415087 -1.02177,-3.529742 -0.99081,-1.145618 -3.00338,-1.145618 -0.80503,0 -1.54813,0.309626 -0.7431,0.278664 -1.33139,0.897917 -0.55733,0.588291 -0.92888,1.548133 -0.37156,0.959842 -0.40252,2.2912358 l -10.46537,0 q 0.031,-3.4678168 1.17658,-5.9448288 1.17658,-2.477012 3.12722,-4.056107 1.98161,-1.610058 4.6444,-2.353161 2.66279,-0.743104 5.72809,-0.743104 3.37493,0 6.06868,0.805029 2.69375,0.774066 4.55151,2.322199 1.88872,1.548132 2.87953,3.839368 0.9908,2.291236 0.9908,5.294613 0,2.0125725 -0.58829,3.5916676 -0.55733,1.5790952 -1.57909,2.9414518 -0.99081,1.3623566 -2.35316,2.6627878 -1.36236,1.26946868 -2.91049,2.6937506 -0.89792,0.8050289 -1.51717,1.5790951 -0.58829,0.7740662 -0.95985,1.6410204 -0.34058,0.8359916 -0.52636,1.857759 -0.15481,0.9908048 -0.18578,2.1983482 l -8.85531,0 z m -1.26947,9.4126455 q 0,-1.114655 0.40251,-2.074498 0.43348,-0.959842 1.20754,-1.64102 0.77407,-0.712141 1.8268,-1.114655 1.05273,-0.402515 2.35316,-0.402515 1.30043,0 2.35316,0.402515 1.05273,0.402514 1.8268,1.114655 0.77407,0.681178 1.17658,1.64102 0.43348,0.959843 0.43348,2.074498 0,1.114655 -0.43348,2.074498 -0.40251,0.959842 -1.17658,1.671983 -0.77407,0.681178 -1.8268,1.083692 -1.05273,0.402515 -2.35316,0.402515 -1.30043,0 -2.35316,-0.402515 -1.05273,-0.402514 -1.8268,-1.083692 -0.77406,-0.712141 -1.20754,-1.671983 -0.40251,-0.959843 -0.40251,-2.074498 z"
         style="font-style:normal;font-variant:normal;font-weight:normal;font-stretch:normal;font-family:Roboto;-inkscape-font-specification:Roboto;fill:#ff89ff;fill-opacity:1"
         id="path7673" /></g><text
       xml:space="preserve"
       style="font-style:normal;font-weight:normal;font-size:32px;line-height:125%;font-family:sans-serif;letter-spacing:0px;word-spacing:0px;fill:#000000;fill-opacity:1;stroke:none;stroke-width:1px;stroke-linecap:butt;stroke-linejoin:miter;stroke-opacity:1"
       x="71.014336"
       y="-32.67218"
       id="text7664"
       sodipodi:linespacing="125%"
       transform="scale(1,-1)"><tspan
         sodipodi:role="line"
         id="tspan7666"
         x="71.014336"
         y="-32.67218"
         style="font-style:normal;font-variant:normal;font-weight:normal;font-stretch:normal;font-size:14px;font-family:Lato;-inkscape-font-specification:Lato">Now</tspan></text>
<text
       transform="scale(1,-1)"
       sodipodi:linespacing="125%"
       id="text7668"
       y="-32.68618"
       x="214.07855"
       style="font-style:normal;font-weight:normal;font-size:32px;line-height:125%;font-family:sans-serif;letter-spacing:0px;word-spacing:0px;fill:#000000;fill-opacity:1;stroke:none;stroke-width:1px;stroke-linecap:butt;stroke-linejoin:miter;stroke-opacity:1"
       xml:space="preserve"><tspan
         style="font-style:normal;font-variant:normal;font-weight:normal;font-stretch:normal;font-size:14px;font-family:Lato;-inkscape-font-specification:Lato"
         y="-32.68618"
         x="214.07855"
         id="tspan7670"
         sodipodi:role="line">The Future</tspan></text>
</g></svg>